<svg width="33" height="33" viewBox="0 0 33 33" fill="none" xmlns="http://www.w3.org/2000/svg">
<path d="M32.8788 16.4394C32.8788 7.38129 25.4975 0 16.4394 0C7.38129 0 0 7.38129 0 16.4394C0 21.2068 2.05492 25.4975 5.30993 28.5059C5.30993 28.5224 5.30992 28.5224 5.29349 28.5388C5.45788 28.7032 5.65515 28.8347 5.81955 28.9827C5.91818 29.0649 6.00038 29.1471 6.09902 29.2128C6.39493 29.4594 6.72371 29.6896 7.03606 29.9197C7.15114 30.0019 7.24977 30.0677 7.36485 30.1499C7.6772 30.3636 8.00599 30.5608 8.35121 30.7417C8.46629 30.8074 8.5978 30.8896 8.71288 30.9554C9.04167 31.1362 9.3869 31.3006 9.74856 31.4486C9.88008 31.5143 10.0116 31.5801 10.1431 31.6294C10.5048 31.7774 10.8664 31.9089 11.2281 32.0239C11.3596 32.0733 11.4911 32.1226 11.6227 32.1555C12.0172 32.2705 12.4117 32.3692 12.8063 32.4678C12.9214 32.5007 13.0364 32.5336 13.168 32.55C13.6283 32.6486 14.0886 32.7144 14.5653 32.7637C14.6311 32.7637 14.6968 32.7802 14.7626 32.7966C15.3215 32.8459 15.8805 32.8788 16.4394 32.8788C16.9983 32.8788 17.5573 32.8459 18.0998 32.7966C18.1655 32.7966 18.2313 32.7802 18.297 32.7637C18.7738 32.7144 19.2341 32.6486 19.6944 32.55C19.8095 32.5336 19.9245 32.4842 20.0561 32.4678C20.4506 32.3692 20.8616 32.287 21.2397 32.1555C21.3712 32.1061 21.5027 32.0568 21.6342 32.0239C21.9959 31.8924 22.374 31.7774 22.7192 31.6294C22.8508 31.5801 22.9823 31.5143 23.1138 31.4486C23.459 31.3006 23.8042 31.1362 24.1495 30.9554C24.281 30.8896 24.3961 30.8074 24.5111 30.7417C24.8399 30.5444 25.1687 30.3636 25.4975 30.1499C25.6126 30.0841 25.7112 30.0019 25.8263 29.9197C26.1551 29.6896 26.4674 29.4594 26.7633 29.2128C26.862 29.1306 26.9442 29.0484 27.0428 28.9827C27.2236 28.8347 27.4045 28.6867 27.5689 28.5388C27.5689 28.5224 27.5689 28.5224 27.5524 28.5059C30.8239 25.4975 32.8788 21.2068 32.8788 16.4394ZM24.5605 24.6098C20.1054 21.6178 12.8063 21.6178 8.31833 24.6098C7.595 25.0865 7.00318 25.6455 6.51 26.2537C4.01121 23.722 2.46591 20.2533 2.46591 16.4394C2.46591 8.72932 8.72932 2.46591 16.4394 2.46591C24.1495 2.46591 30.4129 8.72932 30.4129 16.4394C30.4129 20.2533 28.8676 23.722 26.3688 26.2537C25.892 25.6455 25.2838 25.0865 24.5605 24.6098Z" fill="#FFFFFF"/>
<path d="M16.4394 8.10413C13.0365 8.10413 10.2747 10.8659 10.2747 14.2689C10.2747 17.6061 12.8885 20.3186 16.3572 20.4172H16.5052H16.6203H16.6531C19.9739 20.3022 22.5878 17.6061 22.6042 14.2689C22.6042 10.8659 19.8424 8.10413 16.4394 8.10413Z" fill="#FFFFFF"/>
</svg>
