<svg  width="28" height="28" viewBox="0 0 178 125" fill="none" xmlns="http://www.w3.org/2000/svg">
<path d="M26.639 53.278C36.4344 53.278 44.3983 45.3141 44.3983 35.5187C44.3983 25.7233 36.4344 17.7593 26.639 17.7593C16.8436 17.7593 8.87967 25.7233 8.87967 35.5187C8.87967 45.3141 16.8436 53.278 26.639 53.278ZM150.954 53.278C160.75 53.278 168.714 45.3141 168.714 35.5187C168.714 25.7233 160.75 17.7593 150.954 17.7593C141.159 17.7593 133.195 25.7233 133.195 35.5187C133.195 45.3141 141.159 53.278 150.954 53.278ZM159.834 62.1577H142.075C137.191 62.1577 132.779 64.1279 129.56 67.319C140.743 73.4515 148.679 84.5234 150.399 97.6764H168.714C173.625 97.6764 177.593 93.7083 177.593 88.7967V79.917C177.593 70.1216 169.629 62.1577 159.834 62.1577ZM88.7967 62.1577C105.973 62.1577 119.876 48.2555 119.876 31.0788C119.876 13.9022 105.973 0 88.7967 0C71.6201 0 57.7178 13.9022 57.7178 31.0788C57.7178 48.2555 71.6201 62.1577 88.7967 62.1577ZM110.108 71.0374H107.805C102.033 73.8123 95.6229 75.4772 88.7967 75.4772C81.9704 75.4772 75.5882 73.8123 69.7887 71.0374H67.4855C49.8371 71.0374 35.5187 85.3558 35.5187 103.004V110.996C35.5187 118.349 41.4847 124.315 48.8382 124.315H128.755C136.109 124.315 142.075 118.349 142.075 110.996V103.004C142.075 85.3558 127.756 71.0374 110.108 71.0374ZM48.0335 67.319C44.8146 64.1279 40.4025 62.1577 35.5187 62.1577H17.7593C7.96395 62.1577 0 70.1216 0 79.917V88.7967C0 93.7083 3.9681 97.6764 8.87967 97.6764H27.1662C28.9144 84.5234 36.8506 73.4515 48.0335 67.319Z" fill="#FFFFFF"/>
</svg>
