<svg  width="28" height="28" viewBox="0 0 178 125" fill="none" xmlns="http://www.w3.org/2000/svg">
<path d="M169.425 85.8088C170.147 81.8958 170.147 77.8996 169.425 73.9865L176.585 69.8515C177.418 69.3797 177.779 68.4084 177.501 67.4926C175.642 61.4982 172.45 56.0588 168.287 51.563C167.649 50.8692 166.622 50.7027 165.79 51.1745L158.63 55.3095C155.605 52.7286 152.136 50.7305 148.389 49.3984V41.1283C148.389 40.1847 147.723 39.3522 146.808 39.1579C140.619 37.7703 134.319 37.8258 128.436 39.1579C127.52 39.3522 126.854 40.1847 126.854 41.1283V49.3984C123.107 50.7305 119.638 52.7286 116.613 55.3095L109.453 51.1745C108.649 50.7027 107.594 50.8692 106.956 51.563C102.793 56.0588 99.6015 61.4982 97.7422 67.4926C97.4647 68.4084 97.8532 69.3797 98.658 69.8515L105.818 73.9865C105.096 77.8996 105.096 81.8958 105.818 85.8088L98.658 89.9439C97.8254 90.4157 97.4647 91.387 97.7422 92.3028C99.6015 98.2972 102.793 103.709 106.956 108.232C107.594 108.926 108.621 109.093 109.453 108.621L116.613 104.486C119.638 107.067 123.107 109.065 126.854 110.397V118.667C126.854 119.611 127.52 120.443 128.436 120.637C134.624 122.025 140.924 121.97 146.808 120.637C147.723 120.443 148.389 119.611 148.389 118.667V110.397C152.136 109.065 155.605 107.067 158.63 104.486L165.79 108.621C166.595 109.093 167.649 108.926 168.287 108.232C172.45 103.737 175.642 98.2972 177.501 92.3028C177.779 91.387 177.39 90.4157 176.585 89.9439L169.425 85.8088ZM137.649 93.3574C130.212 93.3574 124.19 87.3075 124.19 79.8977C124.19 72.4879 130.24 66.438 137.649 66.438C145.059 66.438 151.109 72.4879 151.109 79.8977C151.109 87.3075 145.087 93.3574 137.649 93.3574ZM26.6418 53.2559C36.4382 53.2559 44.403 45.2911 44.403 35.4947C44.403 25.6983 36.4382 17.7335 26.6418 17.7335C16.8454 17.7335 8.88061 25.6983 8.88061 35.4947C8.88061 45.2911 16.8454 53.2559 26.6418 53.2559ZM88.8061 62.1365C89.3333 62.1365 89.8329 61.9977 90.3602 61.97C92.6636 55.9478 96.0493 50.2864 100.434 45.5409C102.488 43.3207 105.402 42.0441 108.454 42.0441C110.369 42.0441 112.256 42.5436 113.894 43.515L116.086 44.7916C116.308 44.6528 116.53 44.5418 116.752 44.403C118.695 40.3513 119.86 35.8554 119.86 31.0821C119.86 13.9037 105.957 0 88.7783 0C71.5999 0 57.7239 13.8759 57.7239 31.0544C57.7239 48.2328 71.6276 62.1365 88.8061 62.1365ZM118.001 116.114C117.363 115.781 116.724 115.392 116.114 115.032C113.838 116.364 111.868 117.751 108.482 117.751C105.457 117.751 102.543 116.475 100.462 114.255C95.3833 108.76 91.498 102.071 89.3056 94.9392C86.3361 85.3648 96.2158 81.1465 96.4656 80.98C96.4378 80.2585 96.4378 79.5369 96.4656 78.8154L94.2732 77.5388C93.2186 76.9282 92.3305 76.1512 91.5535 75.2909C90.6377 75.3464 89.7496 75.4574 88.8338 75.4574C82.0068 75.4574 75.6239 73.7923 69.8238 71.0171H67.5204C49.8424 71.0171 35.5224 85.3371 35.5224 102.987V110.98C35.5224 118.334 41.4891 124.301 48.8433 124.301H119.722C118.695 122.636 118.001 120.748 118.001 118.667V116.114ZM48.0385 67.2983C44.8193 64.1069 40.4068 62.1365 35.5224 62.1365H17.7612C7.96479 62.1365 0 70.1013 0 79.8977V88.7783C0 93.6904 3.96852 97.6589 8.88061 97.6589H27.1691C28.9175 84.5045 36.8545 73.4315 48.0385 67.2983Z" fill="#FFFFFF"/>
</svg>
