<svg width="33" height="33" viewBox="0 0 33 33" fill="none" xmlns="http://www.w3.org/2000/svg">
<path d="M25.3223 32.88H7.59362C3.39876 32.88 0 29.4659 0 25.2711V13.9266C0 11.8444 1.28602 9.22645 2.93947 7.94043L11.1914 1.51035C13.6716 -0.418663 17.6368 -0.510521 20.2088 1.29602L29.6702 7.92512C31.4921 9.19583 32.9159 11.921 32.9159 14.1409V25.2864C32.9159 29.4659 29.5171 32.88 25.3223 32.88ZM12.5999 3.3169L4.34796 9.74698C3.26097 10.6043 2.29646 12.5487 2.29646 13.9266V25.2711C2.29646 28.1952 4.66946 30.5835 7.59362 30.5835H25.3223C28.2464 30.5835 30.6194 28.2105 30.6194 25.2864V14.1409C30.6194 12.6711 29.5631 10.6349 28.3536 9.80822L18.8922 3.17911C17.1469 1.95434 14.2687 2.01557 12.5999 3.3169Z" fill="#292D32"/>
<path d="M16.4579 26.7561C15.8302 26.7561 15.3097 26.2356 15.3097 25.6079V21.015C15.3097 20.3873 15.8302 19.8668 16.4579 19.8668C17.0856 19.8668 17.6061 20.3873 17.6061 21.015V25.6079C17.6061 26.2356 17.0856 26.7561 16.4579 26.7561Z" fill="#292D32"/>
</svg>
