<svg width="28" height="28" viewBox="0 0 28 28" fill="none" xmlns="http://www.w3.org/2000/svg">
<path d="M26.88 3.78288V20.5141C26.88 21.8449 25.8707 23.0923 24.6284 23.2586L24.2014 23.3142C21.3805 23.7162 17.0327 25.2547 14.5482 26.7241C14.2117 26.932 13.6553 26.932 13.3059 26.7241L13.2542 26.6965C10.7697 25.241 6.43484 23.7162 3.62686 23.3142L3.25155 23.2586C2.00931 23.0923 1 21.8449 1 20.5141V3.769C1 2.11945 2.25514 0.871905 3.795 1.01052C6.5124 1.24617 10.6273 2.71556 12.9307 4.25422L13.2542 4.46209C13.6294 4.71162 14.2506 4.71162 14.6258 4.46209L14.8458 4.30964C15.661 3.76903 16.6962 3.22841 17.822 2.74324V8.39888L20.41 6.55523L22.998 8.39888V1.16307C23.3474 1.09376 23.6838 1.05212 23.9944 1.0244H24.072C25.6119 0.885781 26.88 2.11946 26.88 3.78288Z" stroke="#323232" stroke-width="2" stroke-linecap="round" stroke-linejoin="round"/>
<path d="M13.9399 4.91956V25.7122" stroke="#323232" stroke-width="2" stroke-linecap="round" stroke-linejoin="round"/>
<path d="M22.998 1.16315V8.39895L20.41 6.55531L17.822 8.39895V2.74332C19.5172 2.02251 21.4064 1.44038 22.998 1.16315Z" stroke="#323232" stroke-width="2" stroke-linecap="round" stroke-linejoin="round"/>
</svg>
