<svg width="25" height="30" viewBox="0 0 20 20" fill="none" xmlns="http://www.w3.org/2000/svg">
<path d="M19.2857 1.25001H13.9286L13.5089 0.519538C13.42 0.363372 13.2831 0.232008 13.1135 0.140225C12.944 0.0484421 12.7485 -0.00011828 12.5491 6.84872e-06H7.44643C7.24749 -0.000662313 7.05236 0.047717 6.8834 0.139602C6.71443 0.231487 6.57846 0.363161 6.49107 0.519538L6.07143 1.25001H0.714286C0.524845 1.25001 0.343164 1.31585 0.209209 1.43306C0.0752549 1.55027 0 1.70925 0 1.87501L0 3.12501C0 3.29077 0.0752549 3.44974 0.209209 3.56695C0.343164 3.68416 0.524845 3.75001 0.714286 3.75001H19.2857C19.4752 3.75001 19.6568 3.68416 19.7908 3.56695C19.9247 3.44974 20 3.29077 20 3.12501V1.87501C20 1.70925 19.9247 1.55027 19.7908 1.43306C19.6568 1.31585 19.4752 1.25001 19.2857 1.25001ZM2.375 18.2422C2.40907 18.7182 2.64918 19.165 3.04645 19.4915C3.44373 19.8181 3.9683 19.9999 4.51339 20H15.4866C16.0317 19.9999 16.5563 19.8181 16.9535 19.4915C17.3508 19.165 17.5909 18.7182 17.625 18.2422L18.5714 5H1.42857L2.375 18.2422Z" fill="#ED4650"/>
</svg>
