<svg width="28" height="28" viewBox="0 0 28 28" fill="none" xmlns="http://www.w3.org/2000/svg">
<path d="M17.7763 27.0694H17.605C11.7536 27.0694 8.93333 24.7631 8.44571 19.597C8.39299 19.0566 8.78836 18.569 9.34187 18.5163C9.86902 18.4636 10.3698 18.8721 10.4225 19.4124C10.8047 23.5506 12.7552 25.0925 17.6182 25.0925H17.7895C23.1533 25.0925 25.051 23.1948 25.051 17.831V9.23836C25.051 3.87458 23.1533 1.97682 17.7895 1.97682H17.6182C12.7288 1.97682 10.7784 3.54511 10.4225 7.76233C10.3566 8.30266 9.89538 8.71121 9.34187 8.65849C8.78836 8.61896 8.393 8.13134 8.43253 7.59101C8.88061 2.34583 11.7141 0 17.605 0H17.7763C24.2471 0 27.0147 2.76755 27.0147 9.23836V17.831C27.0147 24.3018 24.2471 27.0694 17.7763 27.0694Z" fill="#D9D9D9"/>
<path d="M17.4582 14.5231H2.46076C1.92043 14.5231 1.47235 14.075 1.47235 13.5347C1.47235 12.9943 1.92043 12.5463 2.46076 12.5463H17.4582C17.9986 12.5463 18.4466 12.9943 18.4466 13.5347C18.4466 14.075 17.9986 14.5231 17.4582 14.5231Z" fill="#D9D9D9"/>
<path d="M5.40003 18.9381C5.14963 18.9381 4.89923 18.8459 4.70155 18.6482L0.28664 14.2333C-0.0955465 13.8511 -0.0955465 13.2185 0.28664 12.8363L4.70155 8.42141C5.08374 8.03922 5.71632 8.03922 6.09851 8.42141C6.48069 8.80359 6.48069 9.43618 6.09851 9.81836L2.38207 13.5348L6.09851 17.2512C6.48069 17.6334 6.48069 18.266 6.09851 18.6482C5.914 18.8459 5.65043 18.9381 5.40003 18.9381Z" fill="#D9D9D9"/>
</svg>
